<svg xmlns="http://www.w3.org/2000/svg" width="960" height="680" viewBox="0 0 960 680" role="img" aria-label="AI-HPS simulated hospital building navigation map">
  <defs>
    <style>
      .bg { fill: #f4f7fb; }
      .campus { fill: #ffffff; stroke: #cbd5e1; stroke-width: 2; }
      .path { fill: none; stroke: #64748b; stroke-width: 16; stroke-linecap: round; stroke-linejoin: round; opacity: .45; }
      .walk { fill: none; stroke: #0f766e; stroke-width: 5; stroke-linecap: round; stroke-linejoin: round; stroke-dasharray: 10 8; }
      .building { stroke: #1e293b; stroke-width: 2; }
      .roof { fill: rgba(15, 23, 42, .08); }
      .central { fill: #fef3c7; }
      .left { fill: #dbeafe; }
      .right { fill: #dcfce7; }
      .critical { fill: #fee2e2; }
      .support { fill: #e0e7ff; }
      .entry { fill: #fde68a; }
      .label { font: 700 13px Arial, sans-serif; fill: #0f172a; }
      .small { font: 11px Arial, sans-serif; fill: #475569; }
      .title { font: 700 24px Arial, sans-serif; fill: #0f172a; }
      .note { font: 12px Arial, sans-serif; fill: #475569; }
      .zone { font: 700 12px Arial, sans-serif; fill: #334155; letter-spacing: .5px; }
      .pin { fill: #0f766e; }
    </style>
  </defs>

  <rect class="bg" width="960" height="680"/>
  <text class="title" x="34" y="40">AI-HPS Hospital Building Navigation Mockup</text>
  <text class="note" x="34" y="62">Simulated hospital layout for the patient navigation demonstration.</text>

  <rect class="campus" x="34" y="86" width="892" height="548" rx="18"/>
  <rect x="64" y="112" width="832" height="486" rx="12" fill="#eef6f7" stroke="#dbeafe"/>

  <path class="path" d="M121 552 L206 512 L292 445 L402 374"/>
  <path class="path" d="M402 374 L402 291 L486 291"/>
  <path class="path" d="M402 291 L278 250 L196 225"/>
  <path class="path" d="M486 291 L598 256 L746 217"/>
  <path class="path" d="M486 291 L612 340 L780 394"/>
  <path class="path" d="M402 374 L265 382 L170 420"/>

  <path class="walk" d="M121 552 L206 512 L292 445 L402 374 L402 291 L278 250 L196 225"/>
  <path class="walk" d="M402 291 L486 291 L598 256 L746 217"/>
  <path class="walk" d="M486 291 L612 340 L780 394"/>

  <text class="zone" x="84" y="143">LEFT CLINICAL WING</text>
  <text class="zone" x="634" y="143">RIGHT CLINICAL WING</text>
  <text class="zone" x="375" y="190">CENTRAL SERVICES</text>

  <g>
    <rect class="building entry" x="78" y="526" width="126" height="48" rx="4"/>
    <polygon class="roof" points="78,526 96,510 222,510 204,526"/>
    <text class="label" x="96" y="552">Main Entrance</text>
    <text class="small" x="102" y="568">Starting point</text>
  </g>

  <g>
    <rect class="building support" x="214" y="462" width="130" height="56" rx="4"/>
    <polygon class="roof" points="214,462 232,446 362,446 344,462"/>
    <text class="label" x="238" y="492">Dermatology</text>
    <text class="small" x="244" y="508">Front building</text>
  </g>

  <g>
    <rect class="building entry" x="348" y="342" width="112" height="64" rx="4"/>
    <polygon class="roof" points="348,342 366,326 478,326 460,342"/>
    <text class="label" x="376" y="372">Main Gate</text>
    <text class="small" x="373" y="388">Junction</text>
  </g>

  <g>
    <rect class="building central" x="430" y="244" width="116" height="74" rx="4"/>
    <polygon class="roof" points="430,244 448,226 564,226 546,244"/>
    <text class="label" x="456" y="276">Reception</text>
    <text class="small" x="452" y="294">Central desk</text>
  </g>

  <g>
    <rect class="building central" x="325" y="214" width="102" height="62" rx="4"/>
    <polygon class="roof" points="325,214 343,198 445,198 427,214"/>
    <text class="label" x="346" y="245">Laboratory</text>
    <text class="small" x="346" y="261">Samples</text>
  </g>

  <g>
    <rect class="building left" x="120" y="190" width="118" height="68" rx="4"/>
    <polygon class="roof" points="120,190 138,172 256,172 238,190"/>
    <text class="label" x="146" y="222">Pediatrics</text>
    <text class="small" x="146" y="240">Children unit</text>
  </g>

  <g>
    <rect class="building left" x="74" y="352" width="142" height="74" rx="4"/>
    <polygon class="roof" points="74,352 92,334 234,334 216,352"/>
    <text class="label" x="101" y="384">Gynecology</text>
    <text class="small" x="101" y="402">Obstetrics clinic</text>
  </g>

  <g>
    <rect class="building left" x="210" y="120" width="140" height="78" rx="4"/>
    <polygon class="roof" points="210,120 230,100 370,100 350,120"/>
    <text class="label" x="252" y="153">Maternity</text>
    <text class="small" x="245" y="172">Delivery ward</text>
  </g>

  <g>
    <rect class="building right critical" x="620" y="176" width="126" height="70" rx="4"/>
    <polygon class="roof" points="620,176 638,158 764,158 746,176"/>
    <text class="label" x="651" y="209">Emergency</text>
    <text class="small" x="650" y="227">24h access</text>
  </g>

  <g>
    <rect class="building right" x="748" y="166" width="126" height="70" rx="4"/>
    <polygon class="roof" points="748,166 766,148 892,148 874,166"/>
    <text class="label" x="777" y="198">Surgery</text>
    <text class="small" x="769" y="216">Surgical ward</text>
  </g>

  <g>
    <rect class="building critical" x="730" y="320" width="136" height="80" rx="4"/>
    <polygon class="roof" points="730,320 750,300 886,300 866,320"/>
    <text class="label" x="764" y="352">Operating</text>
    <text class="label" x="778" y="369">Block</text>
    <text class="small" x="756" y="388">Restricted area</text>
  </g>

  <g>
    <rect class="building critical" x="584" y="338" width="110" height="66" rx="4"/>
    <polygon class="roof" points="584,338 602,320 712,320 694,338"/>
    <text class="label" x="622" y="370">ICU</text>
    <text class="small" x="604" y="388">Critical care</text>
  </g>

  <g>
    <rect class="building right" x="608" y="458" width="148" height="66" rx="4"/>
    <polygon class="roof" points="608,458 626,440 774,440 756,458"/>
    <text class="label" x="640" y="491">Radiology</text>
    <text class="small" x="640" y="508">Imaging</text>
  </g>

  <g>
    <rect class="building right" x="768" y="458" width="118" height="66" rx="4"/>
    <polygon class="roof" points="768,458 786,440 904,440 886,458"/>
    <text class="label" x="793" y="490">Blood</text>
    <text class="label" x="794" y="506">Bank</text>
  </g>

  <g>
    <rect class="building support" x="410" y="446" width="130" height="62" rx="4"/>
    <polygon class="roof" points="410,446 428,428 558,428 540,446"/>
    <text class="label" x="438" y="478">Pharmacy</text>
    <text class="small" x="438" y="495">Medicines</text>
  </g>

  <g>
    <circle class="pin" cx="121" cy="552" r="7"/>
    <circle class="pin" cx="402" cy="374" r="7"/>
    <circle class="pin" cx="486" cy="291" r="7"/>
    <text class="small" x="76" y="617">Dashed green lines show the simulated paths used by the chatbot.</text>
  </g>
</svg>
